<svg width="424" height="73" viewBox="0 0 424 73" fill="none" xmlns="http://www.w3.org/2000/svg">
<path d="M23.5686 53.8536C11.8865 53.8536 3.6198 49.951 0 46.6675L7.75315 35.3758C12.6095 39.4814 18.6076 41.5367 23.5686 41.5367C27.8066 41.5367 29.6664 40.3035 29.6664 38.0452C29.6664 36.3019 28.2205 34.9647 23.6733 33.9396L14.4742 31.7852C5.47956 29.725 1.2415 24.2822 1.2415 16.789C1.2415 6.52246 9.5082 0.465538 21.8085 0.465538C31.3167 0.465538 38.9652 3.33799 42.6897 6.62646L34.9365 17.9182C31.5261 14.8377 26.5651 12.5794 21.8085 12.5794C17.8796 12.5794 16.1246 13.9166 16.1246 15.9669C16.1246 18.0172 17.9843 19.1514 21.4994 19.9685L30.6985 22.0238C40.102 24.0791 44.6541 29.1059 44.6541 36.5C44.6541 47.0736 36.6916 53.8536 23.5686 53.8536ZM78.763 52.8235H94.2693V25.2083C94.2693 18.4332 97.575 14.2236 103.987 14.2236C110.085 14.2236 113.291 17.7151 113.291 25.2083V52.8284H128.797V21.3057C128.797 7.54763 121.872 0.465538 109.985 0.465538C103.164 0.465538 97.9938 3.13494 94.2743 8.36974V5.08623C94.2743 2.82789 92.9331 1.49071 90.6545 1.49071H78.768V52.8235H78.763ZM191.64 1.49071V45.9444C191.64 65.2444 179.03 72.9455 163.524 72.9455C153.188 72.9455 144.607 70.2761 139.442 65.6554L147.504 53.7446C150.915 57.0282 156.394 60.0096 163.524 60.0096C171.482 60.0096 176.134 54.9778 176.134 47.9997V44.7162C172.414 49.3369 167.039 51.3872 160.423 51.3872C147.918 51.3872 137.064 40.5066 137.064 25.9264C137.064 11.3462 147.918 0.465538 160.423 0.465538C167.039 0.465538 172.618 2.93189 176.134 8.16669V5.08623C176.134 2.82789 177.48 1.49071 179.753 1.49071H191.64ZM176.652 25.9264C176.652 19.2554 171.586 14.0156 164.561 14.0156C158.05 14.0156 152.779 19.2504 152.779 25.9264C152.779 32.5974 158.05 37.8372 164.561 37.8372C171.586 37.8372 176.652 32.5974 176.652 25.9264ZM259.444 27.1596C259.444 42.9729 248.589 53.8536 235.152 53.8536C228.122 53.8536 222.543 51.7983 218.509 47.1826V71.7223H203.003V1.49071H214.894C217.168 1.49071 218.514 2.82789 218.514 5.08623V8.16669C222.338 2.93189 228.127 0.465538 235.157 0.465538C248.594 0.465538 259.444 11.3462 259.444 27.1596ZM243.733 27.1596C243.733 19.4584 238.254 14.0156 231.019 14.0156C223.68 14.0156 217.996 19.4584 217.996 27.1596C217.996 34.8607 223.68 40.3035 231.019 40.3035C238.258 40.2986 243.733 34.8558 243.733 27.1596ZM322.496 1.49071V52.8235H306.99V46.1524C303.166 51.3872 297.377 53.8536 290.347 53.8536C276.91 53.8536 266.055 42.9729 266.055 27.1596C266.055 11.3462 276.91 0.465538 290.347 0.465538C297.377 0.465538 303.166 2.93189 306.99 8.16669V5.08623C306.99 2.82789 308.336 1.49071 310.61 1.49071H322.496ZM307.508 27.1596C307.508 19.4584 301.824 14.0156 294.485 14.0156C287.25 14.0156 281.771 19.4584 281.771 27.1596C281.771 34.8607 287.25 40.3035 294.485 40.3035C301.824 40.2986 307.508 34.8558 307.508 27.1596ZM353.923 53.8536C367.051 53.8536 375.008 47.0786 375.008 36.505C375.008 29.1109 370.461 24.0841 361.052 22.0288L351.853 19.9735C348.338 19.1514 346.478 18.0222 346.478 15.9718C346.478 13.9215 348.234 12.5843 352.162 12.5843C356.919 12.5843 361.88 14.8427 365.29 17.9231L373.044 6.63141C369.324 3.3479 361.676 0.470491 352.162 0.470491C339.862 0.470491 331.595 6.52741 331.595 16.794C331.595 24.2871 335.833 29.7299 344.828 31.7852L354.027 33.9396C358.574 34.9647 360.02 36.3019 360.02 38.0452C360.02 40.3035 358.161 41.5367 353.923 41.5367C348.961 41.5367 342.968 39.4814 338.107 35.3758L330.354 46.6675C333.974 49.951 342.24 53.8536 353.923 53.8536ZM402.914 53.8536C416.042 53.8536 424 47.0786 424 36.505C424 29.1109 419.453 24.0841 410.044 22.0288L400.845 19.9735C397.33 19.1514 395.47 18.0222 395.47 15.9718C395.47 13.9215 397.225 12.5843 401.154 12.5843C405.911 12.5843 410.872 14.8427 414.282 17.9231L422.036 6.63141C418.316 3.3479 410.668 0.470491 401.154 0.470491C388.854 0.470491 380.587 6.52741 380.587 16.794C380.587 24.2871 384.825 29.7299 393.82 31.7852L403.019 33.9396C407.566 34.9647 409.012 36.3019 409.012 38.0452C409.012 40.3035 407.152 41.5367 402.914 41.5367C397.953 41.5367 391.96 39.4814 387.099 35.3758L379.346 46.6675C382.966 49.951 391.237 53.8536 402.914 53.8536Z" fill="#F4333D"/>
<path d="M59.951 17.9182C65.0167 17.9182 68.9457 14.0156 68.9457 8.98385C68.9457 3.9521 65.0167 0.0495262 59.951 0.0495262C54.8853 0.0495262 50.9564 3.9521 50.9564 8.98385C50.9613 14.0156 54.8853 17.9182 59.951 17.9182ZM50.2334 52.8235H69.6636L65.5303 20.8946C62.429 21.8208 57.468 21.8208 54.3667 20.8946L50.2334 52.8235Z" fill="black"/>
</svg>
